<svg width="173" height="48" viewBox="0 0 173 48" fill="none" xmlns="http://www.w3.org/2000/svg">
<rect x="0.5" y="0.5" width="172" height="47" rx="3.5" fill="white"/>
<rect x="0.5" y="0.5" width="172" height="47" rx="3.5" stroke="#A53DFF"/>
<path d="M34.416 26.088C34.2133 26.7707 33.8933 27.3413 33.456 27.8C33.0187 28.2587 32.5013 28.6 31.904 28.824C31.3067 29.048 30.6507 29.16 29.936 29.16C28.8907 29.16 27.984 28.9413 27.216 28.504C26.4587 28.0667 25.872 27.4427 25.456 26.632C25.0507 25.8213 24.848 24.8507 24.848 23.72C24.848 22.5893 25.0507 21.6187 25.456 20.808C25.872 19.9973 26.4587 19.3733 27.216 18.936C27.984 18.4987 28.88 18.28 29.904 18.28C30.6293 18.28 31.2853 18.3813 31.872 18.584C32.4587 18.776 32.9547 19.0747 33.36 19.48C33.776 19.8853 34.08 20.3973 34.272 21.016L32.272 21.864C32.0907 21.224 31.8133 20.7707 31.44 20.504C31.0667 20.2267 30.5867 20.088 30 20.088C29.424 20.088 28.9173 20.2267 28.48 20.504C28.0533 20.7813 27.7227 21.192 27.488 21.736C27.2533 22.2693 27.136 22.9307 27.136 23.72C27.136 24.4987 27.2427 25.16 27.456 25.704C27.68 26.248 28.0053 26.6587 28.432 26.936C28.8587 27.2133 29.3813 27.352 30 27.352C30.576 27.352 31.072 27.1973 31.488 26.888C31.9147 26.5787 32.2133 26.1093 32.384 25.48L34.416 26.088ZM40.6339 23.896C40.6339 23.4373 40.5005 23.08 40.2339 22.824C39.9779 22.568 39.6365 22.44 39.2099 22.44C38.8152 22.44 38.4685 22.5413 38.1699 22.744C37.8712 22.9467 37.6525 23.2827 37.5139 23.752L35.6419 23.176C35.8232 22.472 36.2179 21.9067 36.8259 21.48C37.4445 21.0533 38.2712 20.84 39.3059 20.84C40.0099 20.84 40.6232 20.952 41.1459 21.176C41.6685 21.3893 42.0739 21.7147 42.3619 22.152C42.6605 22.5893 42.8099 23.1387 42.8099 23.8V27.048C42.8099 27.4533 43.0019 27.656 43.3859 27.656C43.5672 27.656 43.7379 27.6293 43.8979 27.576L43.7699 28.936C43.4925 29.0747 43.1459 29.144 42.7299 29.144C42.3565 29.144 42.0205 29.08 41.7219 28.952C41.4232 28.824 41.1885 28.632 41.0179 28.376C40.8472 28.1093 40.7619 27.7787 40.7619 27.384V27.32L41.1459 27.256C41.0819 27.6613 40.9059 28.008 40.6179 28.296C40.3299 28.5733 39.9779 28.7867 39.5619 28.936C39.1565 29.0853 38.7352 29.16 38.2979 29.16C37.7539 29.16 37.2845 29.08 36.8899 28.92C36.4952 28.7493 36.1912 28.504 35.9779 28.184C35.7645 27.864 35.6579 27.4693 35.6579 27C35.6579 26.4027 35.8499 25.9173 36.2339 25.544C36.6179 25.16 37.1672 24.8987 37.8819 24.76L40.8899 24.152L40.8739 25.512L38.9539 25.896C38.5912 25.9707 38.3139 26.072 38.1219 26.2C37.9405 26.3173 37.8499 26.5147 37.8499 26.792C37.8499 27.0587 37.9459 27.2613 38.1379 27.4C38.3405 27.5387 38.5805 27.608 38.8579 27.608C39.0819 27.608 39.3005 27.5813 39.5139 27.528C39.7272 27.4747 39.9192 27.3893 40.0899 27.272C40.2605 27.1547 40.3939 26.9947 40.4899 26.792C40.5859 26.5893 40.6339 26.344 40.6339 26.056V23.896ZM48.4614 29.16C47.6507 29.16 46.9094 29.016 46.2374 28.728C45.576 28.44 45.0374 28.0347 44.6214 27.512L45.8854 26.232C46.1414 26.616 46.4827 26.9307 46.9094 27.176C47.336 27.4213 47.8427 27.544 48.4294 27.544C48.8454 27.544 49.176 27.4853 49.4214 27.368C49.6774 27.24 49.8054 27.0427 49.8054 26.776C49.8054 26.6053 49.7467 26.4613 49.6294 26.344C49.512 26.216 49.2774 26.1147 48.9254 26.04L47.5174 25.752C46.5894 25.56 45.928 25.272 45.5334 24.888C45.1494 24.4933 44.9574 23.9867 44.9574 23.368C44.9574 22.9307 45.0854 22.52 45.3414 22.136C45.608 21.752 46.0027 21.4427 46.5254 21.208C47.048 20.9627 47.6987 20.84 48.4774 20.84C49.2774 20.84 49.9707 20.968 50.5574 21.224C51.1547 21.4693 51.624 21.8373 51.9654 22.328L50.6534 23.608C50.4187 23.2347 50.1094 22.952 49.7254 22.76C49.352 22.5573 48.9574 22.456 48.5414 22.456C48.2427 22.456 47.9867 22.488 47.7734 22.552C47.56 22.616 47.4 22.7067 47.2934 22.824C47.1867 22.9307 47.1334 23.0693 47.1334 23.24C47.1334 23.4107 47.208 23.56 47.3574 23.688C47.5067 23.8053 47.7787 23.9067 48.1734 23.992L49.8054 24.328C50.5947 24.488 51.16 24.76 51.5014 25.144C51.8427 25.5173 52.0134 25.9707 52.0134 26.504C52.0134 27.016 51.8747 27.4747 51.5974 27.88C51.3307 28.2747 50.9307 28.5893 50.3974 28.824C49.8747 29.048 49.2294 29.16 48.4614 29.16ZM57.4421 29.16C56.5995 29.16 55.8635 28.9947 55.2341 28.664C54.6155 28.3333 54.1355 27.8587 53.7941 27.24C53.4528 26.6213 53.2821 25.8747 53.2821 25C53.2821 24.1253 53.4528 23.3787 53.7941 22.76C54.1355 22.1413 54.6101 21.6667 55.2181 21.336C55.8368 21.0053 56.5408 20.84 57.3301 20.84C58.1408 20.84 58.8288 21.0053 59.3941 21.336C59.9595 21.656 60.3915 22.0987 60.6901 22.664C60.9888 23.2187 61.1381 23.8533 61.1381 24.568C61.1381 24.7813 61.1328 24.984 61.1221 25.176C61.1115 25.368 61.0955 25.5387 61.0741 25.688H54.6901V24.168H60.1141L59.0581 24.552C59.0581 23.88 58.9035 23.3627 58.5941 23C58.2955 22.6373 57.8688 22.456 57.3141 22.456C56.9088 22.456 56.5568 22.552 56.2581 22.744C55.9701 22.936 55.7515 23.224 55.6021 23.608C55.4528 23.9813 55.3781 24.456 55.3781 25.032C55.3781 25.5973 55.4581 26.0667 55.6181 26.44C55.7888 26.8027 56.0235 27.0747 56.3221 27.256C56.6315 27.4373 56.9995 27.528 57.4261 27.528C57.8955 27.528 58.2741 27.4373 58.5621 27.256C58.8501 27.0747 59.0741 26.824 59.2341 26.504L60.9781 27.176C60.8075 27.592 60.5461 27.9493 60.1941 28.248C59.8528 28.5467 59.4421 28.776 58.9621 28.936C58.4928 29.0853 57.9861 29.16 57.4421 29.16ZM71.9664 18.28C72.9264 18.28 73.769 18.4453 74.4944 18.776C75.2197 19.1067 75.8384 19.5973 76.3504 20.248L75.1184 21.672C74.681 21.1173 74.201 20.712 73.6784 20.456C73.1664 20.1893 72.569 20.056 71.8864 20.056C71.4384 20.056 71.065 20.1147 70.7664 20.232C70.4784 20.3493 70.265 20.504 70.1264 20.696C69.9984 20.888 69.9344 21.1013 69.9344 21.336C69.9344 21.624 70.0464 21.8693 70.2704 22.072C70.4944 22.264 70.8784 22.424 71.4224 22.552L73.3904 23C74.4357 23.2347 75.1824 23.5867 75.6304 24.056C76.089 24.5147 76.3184 25.112 76.3184 25.848C76.3184 26.5413 76.137 27.1387 75.7744 27.64C75.4117 28.1307 74.905 28.5093 74.2544 28.776C73.6037 29.032 72.857 29.16 72.0144 29.16C71.2784 29.16 70.601 29.0747 69.9824 28.904C69.3744 28.7227 68.8304 28.4773 68.3504 28.168C67.8704 27.8587 67.4704 27.5013 67.1504 27.096L68.3984 25.608C68.6437 25.9493 68.9477 26.2533 69.3104 26.52C69.673 26.7867 70.0837 27 70.5424 27.16C71.0117 27.3093 71.5024 27.384 72.0144 27.384C72.4517 27.384 72.8197 27.336 73.1184 27.24C73.4277 27.1333 73.657 26.9893 73.8064 26.808C73.9664 26.616 74.0464 26.3867 74.0464 26.12C74.0464 25.8427 73.9504 25.608 73.7584 25.416C73.577 25.2133 73.2357 25.0587 72.7344 24.952L70.5904 24.472C69.9717 24.3227 69.4384 24.1307 68.9904 23.896C68.553 23.6507 68.217 23.3413 67.9824 22.968C67.7584 22.584 67.6464 22.1307 67.6464 21.608C67.6464 20.9787 67.817 20.4133 68.1584 19.912C68.4997 19.4107 68.9904 19.016 69.6304 18.728C70.281 18.4293 71.0597 18.28 71.9664 18.28ZM81.0153 18.552V26.392C81.0153 26.776 81.1113 27.0587 81.3033 27.24C81.5059 27.4107 81.7779 27.496 82.1193 27.496C82.3859 27.496 82.6206 27.4587 82.8233 27.384C83.0259 27.2987 83.2073 27.1867 83.3673 27.048L83.7193 28.504C83.4633 28.7067 83.1433 28.8667 82.7593 28.984C82.3753 29.1013 81.9699 29.16 81.5433 29.16C81.0099 29.16 80.5353 29.08 80.1193 28.92C79.7139 28.76 79.3939 28.504 79.1593 28.152C78.9353 27.8 78.8233 27.3307 78.8233 26.744V19.16L81.0153 18.552ZM83.5753 21V22.632H77.3513V21H83.5753ZM87.8423 29.16C87.3089 29.16 86.8289 29.064 86.4023 28.872C85.9756 28.68 85.6343 28.376 85.3783 27.96C85.1329 27.5333 85.0103 26.984 85.0103 26.312V21H87.2023V25.784C87.2023 26.4027 87.3303 26.8347 87.5863 27.08C87.8423 27.3147 88.2103 27.432 88.6903 27.432C88.9143 27.432 89.1329 27.3947 89.3463 27.32C89.5596 27.2347 89.7463 27.1067 89.9063 26.936C90.0769 26.7653 90.2103 26.5467 90.3063 26.28C90.4023 26.0027 90.4503 25.6773 90.4503 25.304V21H92.6423V29H90.6903L90.6103 27.608C90.3436 28.1413 89.9756 28.536 89.5063 28.792C89.0476 29.0373 88.4929 29.16 87.8423 29.16ZM97.9729 29.16C97.3115 29.16 96.7195 28.9947 96.1969 28.664C95.6849 28.3333 95.2795 27.8587 94.9809 27.24C94.6929 26.6213 94.5489 25.88 94.5489 25.016C94.5489 24.1307 94.7035 23.3787 95.0129 22.76C95.3222 22.1307 95.7382 21.656 96.2609 21.336C96.7942 21.0053 97.3915 20.84 98.0529 20.84C98.7569 20.84 99.3382 21.0427 99.7969 21.448C100.256 21.8533 100.554 22.376 100.693 23.016L100.485 23.272V17.496H102.677V29H100.709L100.565 26.568L100.837 26.696C100.762 27.1973 100.592 27.6347 100.325 28.008C100.058 28.3707 99.7222 28.6533 99.3169 28.856C98.9115 29.0587 98.4635 29.16 97.9729 29.16ZM98.6129 27.48C98.9969 27.48 99.3275 27.384 99.6049 27.192C99.8822 26.9893 100.096 26.696 100.245 26.312C100.405 25.928 100.485 25.4693 100.485 24.936C100.485 24.424 100.41 23.992 100.261 23.64C100.112 23.2773 99.8982 23 99.6209 22.808C99.3435 22.616 99.0182 22.52 98.6449 22.52C98.0475 22.52 97.5782 22.7333 97.2369 23.16C96.9062 23.576 96.7409 24.1893 96.7409 25C96.7409 25.8107 96.9062 26.4293 97.2369 26.856C97.5675 27.272 98.0262 27.48 98.6129 27.48ZM112.5 21L109.268 29.496C109.012 30.2213 108.724 30.7973 108.404 31.224C108.095 31.6507 107.732 31.96 107.316 32.152C106.911 32.344 106.425 32.44 105.86 32.44C105.444 32.44 105.06 32.3867 104.708 32.28C104.367 32.184 104.068 32.056 103.812 31.896L104.276 30.312C104.479 30.472 104.692 30.584 104.916 30.648C105.14 30.7227 105.396 30.76 105.684 30.76C105.983 30.76 106.239 30.696 106.452 30.568C106.676 30.44 106.863 30.184 107.012 29.8L107.284 29.112L106.404 27.032L103.956 21H106.388L107.908 25.8L108.324 27.4L108.82 25.704L110.276 21H112.5Z" fill="#A53DFF"/>
<path d="M142.92 23.6202C142.872 23.4974 142.801 23.3853 142.71 23.2902L137.71 18.2902C137.617 18.1969 137.506 18.123 137.384 18.0725C137.262 18.0221 137.132 17.9961 137 17.9961C136.734 17.9961 136.478 18.1019 136.29 18.2902C136.197 18.3834 136.123 18.4941 136.072 18.6159C136.022 18.7378 135.996 18.8683 135.996 19.0002C135.996 19.2665 136.102 19.5219 136.29 19.7102L139.59 23.0002H132C131.735 23.0002 131.48 23.1055 131.293 23.2931C131.105 23.4806 131 23.735 131 24.0002C131 24.2654 131.105 24.5198 131.293 24.7073C131.48 24.8948 131.735 25.0002 132 25.0002H139.59L136.29 28.2902C136.196 28.3831 136.122 28.4937 136.071 28.6156C136.02 28.7375 135.994 28.8682 135.994 29.0002C135.994 29.1322 136.02 29.2629 136.071 29.3848C136.122 29.5066 136.196 29.6172 136.29 29.7102C136.383 29.8039 136.494 29.8783 136.615 29.9291C136.737 29.9798 136.868 30.006 137 30.006C137.132 30.006 137.263 29.9798 137.385 29.9291C137.506 29.8783 137.617 29.8039 137.71 29.7102L142.71 24.7102C142.801 24.6151 142.872 24.5029 142.92 24.3802C143.02 24.1367 143.02 23.8636 142.92 23.6202Z" fill="#A53DFF"/>
</svg>
